<?xml version="1.0" standalone="no"?>
<!DOCTYPE svg PUBLIC "-//W3C//DTD SVG 20010904//EN"
 "http://www.w3.org/TR/2001/REC-SVG-20010904/DTD/svg10.dtd">
<svg version="1.0" xmlns="http://www.w3.org/2000/svg"
 width="512.000000pt" height="512.000000pt" viewBox="0 0 512.000000 512.000000"
 preserveAspectRatio="xMidYMid meet">
<metadata>
Created by potrace 1.14, written by Peter Selinger 2001-2017
</metadata>
<g transform="translate(0.000000,512.000000) scale(0.100000,-0.100000)"
fill="#000000" stroke="none">
<path d="M1259 4889 c-11 -9 -19 -24 -19 -33 0 -9 -6 -15 -12 -13 -7 1 -12 -4
-10 -10 1 -7 -3 -13 -8 -13 -5 0 -10 -7 -10 -15 0 -8 -6 -15 -14 -15 -8 0 -17
-11 -20 -25 -4 -14 -21 -41 -39 -60 -43 -46 -53 -58 -55 -68 -2 -13 -30 -37
-42 -37 -6 0 -9 -4 -5 -9 8 -14 -16 -61 -32 -61 -7 0 -13 -7 -13 -15 0 -9 -15
-30 -32 -48 -18 -17 -32 -35 -30 -39 1 -4 -2 -8 -8 -8 -5 0 -10 -9 -10 -21 0
-11 -5 -17 -10 -14 -6 4 -15 -7 -21 -24 -8 -21 -15 -28 -27 -24 -13 4 -12 2 3
-11 11 -10 15 -15 8 -12 -23 12 -23 -13 2 -42 13 -16 22 -32 18 -36 -3 -3 1
-6 9 -6 9 0 18 -10 21 -21 4 -15 11 -20 21 -16 10 4 16 1 16 -9 0 -8 11 -19
25 -26 13 -6 22 -15 19 -19 -3 -5 6 -14 20 -20 14 -7 23 -15 21 -19 -3 -5 2
-10 10 -14 8 -3 15 -12 15 -21 0 -8 8 -15 18 -15 9 0 22 -10 27 -22 6 -13 15
-23 22 -23 6 0 21 -10 33 -22 11 -13 26 -23 33 -23 7 0 6 -4 -3 -10 -8 -5 -10
-10 -4 -10 18 0 56 -38 45 -44 -6 -4 -7 -14 -4 -23 4 -11 3 -14 -5 -9 -8 5
-12 -1 -12 -18 0 -17 -4 -24 -14 -20 -8 3 -18 -7 -26 -25 -7 -17 -16 -28 -21
-25 -5 3 -9 -1 -9 -9 0 -8 -7 -17 -15 -21 -8 -3 -15 -11 -15 -18 0 -7 -12 -24
-25 -37 -14 -13 -25 -29 -25 -37 0 -8 -7 -14 -16 -14 -8 0 -12 -4 -9 -10 3 -5
1 -10 -5 -10 -6 0 -8 -4 -5 -10 3 -5 -5 -21 -19 -34 -14 -13 -26 -26 -26 -30
0 -3 -8 -15 -17 -26 -13 -15 -19 -17 -26 -7 -6 8 -7 7 -4 -5 3 -9 -1 -22 -9
-28 -8 -7 -14 -19 -14 -27 0 -8 -4 -11 -10 -8 -5 3 -16 -10 -24 -30 -8 -19
-19 -35 -24 -35 -6 0 -13 -11 -16 -25 -4 -14 -11 -23 -17 -19 -6 3 -13 -3 -16
-15 -3 -11 -9 -18 -14 -15 -5 2 -11 -7 -15 -21 -3 -14 -10 -25 -16 -25 -5 0
-6 -6 -2 -12 5 -8 0 -7 -11 2 -12 10 -16 10 -11 2 4 -7 2 -19 -4 -27 -7 -8 -9
-15 -4 -15 5 -1 -2 -7 -16 -15 -14 -7 -24 -16 -22 -19 6 -15 0 -25 -18 -31
-11 -3 -19 -9 -18 -13 3 -14 -14 -42 -22 -37 -5 3 -11 -4 -15 -15 -4 -11 -10
-18 -15 -15 -4 3 -10 -13 -12 -35 -2 -22 1 -40 6 -40 5 0 7 -3 3 -6 -3 -3 8
-19 24 -35 17 -16 27 -34 24 -40 -4 -5 -2 -15 3 -22 10 -12 12 -18 12 -38 0
-5 5 -7 10 -4 6 3 10 -3 10 -14 0 -11 4 -22 9 -25 5 -4 8 -17 6 -31 -1 -16 3
-25 11 -25 8 0 19 -19 26 -45 7 -25 18 -45 24 -45 7 0 11 -8 10 -17 -2 -10 1
-21 5 -24 5 -3 10 -17 11 -31 1 -15 5 -26 8 -25 3 1 7 -2 9 -8 2 -5 10 -14 17
-20 7 -5 18 -29 24 -52 6 -24 15 -43 20 -43 5 0 12 -16 16 -36 4 -19 13 -38
20 -41 8 -3 12 -9 9 -13 -3 -5 1 -14 8 -22 7 -7 12 -23 11 -35 -1 -20 6 -27
27 -25 3 1 4 -10 1 -24 -3 -16 0 -24 8 -22 7 2 18 -16 25 -41 8 -24 19 -47 26
-51 6 -4 12 -20 12 -34 -1 -16 7 -31 18 -37 10 -5 18 -13 17 -17 -4 -16 26
-91 33 -86 5 3 9 -6 9 -20 0 -14 4 -26 10 -26 5 0 7 -7 4 -15 -4 -8 1 -17 10
-21 9 -3 16 -15 16 -25 0 -10 4 -19 9 -19 10 0 20 -23 28 -60 2 -13 10 -28 16
-32 7 -4 13 -13 13 -20 3 -31 27 -77 37 -71 6 4 8 -2 5 -15 -4 -12 -2 -25 3
-28 5 -3 9 -15 9 -27 0 -12 9 -28 20 -35 12 -7 18 -17 15 -22 -3 -6 -2 -10 4
-10 5 0 15 -17 21 -37 7 -21 18 -42 25 -48 6 -5 13 -14 13 -18 2 -14 29 -36
36 -29 4 3 4 -1 0 -11 -4 -13 -1 -17 14 -17 11 0 27 -12 37 -26 9 -14 19 -23
22 -21 8 8 40 -27 36 -39 -2 -6 8 -14 22 -18 14 -4 24 -10 21 -14 -2 -4 2 -13
10 -20 8 -7 14 -10 14 -7 0 3 6 0 14 -7 8 -7 12 -16 10 -19 -5 -8 35 -22 56
-20 13 2 13 1 0 -8 -13 -9 -12 -12 5 -25 11 -8 23 -12 27 -10 5 3 8 -2 8 -10
0 -9 5 -16 11 -16 5 0 8 -4 5 -8 -2 -4 -1 -14 5 -22 7 -12 9 -12 9 -1 0 11 3
11 15 1 8 -7 15 -19 15 -26 0 -8 3 -14 8 -13 21 3 50 -14 45 -27 -5 -12 1 -16
23 -13 4 0 12 -10 19 -23 6 -13 17 -22 23 -21 7 2 9 -4 5 -14 -4 -11 -3 -14 5
-9 7 4 12 2 12 -3 0 -6 7 -11 15 -11 8 0 15 -6 15 -14 0 -8 9 -18 20 -21 11
-3 20 -13 20 -21 0 -8 9 -14 20 -14 11 0 20 -7 20 -15 0 -9 12 -20 26 -25 14
-6 23 -14 19 -19 -3 -5 4 -12 15 -16 11 -4 18 -11 15 -16 -4 -5 6 -14 20 -19
16 -6 23 -14 19 -22 -4 -7 -3 -8 5 -4 6 4 14 0 17 -8 3 -9 16 -16 28 -17 11 0
16 -3 9 -6 -10 -3 -10 -7 0 -18 7 -7 15 -11 20 -8 4 2 7 -1 7 -7 0 -6 5 -8 12
-4 7 4 8 3 4 -4 -4 -8 0 -12 11 -12 15 0 15 -2 4 -9 -12 -8 -10 -12 12 -22 15
-7 27 -18 27 -24 0 -12 35 -29 52 -26 5 1 7 -3 5 -7 -1 -5 13 -23 31 -41 18
-19 29 -38 25 -44 -4 -7 2 -5 12 3 10 8 16 10 12 4 -8 -14 16 -37 28 -26 5 4
5 -1 2 -11 -5 -12 -1 -17 13 -17 11 0 20 -5 20 -11 0 -5 5 -7 10 -4 6 4 9 3 8
-2 -3 -11 50 -63 64 -63 6 0 8 -3 5 -7 -11 -10 26 -32 56 -33 17 0 27 5 27 15
0 8 3 14 8 13 14 -3 42 14 36 23 -3 5 2 9 11 9 8 0 18 7 21 15 4 8 13 15 21
15 8 0 11 5 8 10 -3 6 5 14 19 20 14 5 26 14 26 19 0 5 9 13 20 16 11 3 20 13
20 21 0 8 7 14 16 14 8 0 13 4 10 9 -5 8 20 36 33 36 3 0 5 3 4 7 -1 3 13 13
31 22 19 9 36 23 40 31 3 8 12 15 21 15 8 0 15 3 14 8 -3 20 14 50 26 46 15
-6 38 29 27 41 -4 5 -1 5 6 1 6 -4 19 0 28 8 8 9 12 16 7 17 -4 0 1 4 12 8 11
5 24 8 29 7 8 -1 30 42 28 55 -1 4 10 10 24 13 17 5 24 12 20 21 -4 10 1 15
14 15 11 0 20 5 20 10 0 6 7 10 16 10 8 0 13 4 10 9 -3 4 6 13 20 20 14 6 22
16 19 21 -6 9 8 14 28 11 4 0 7 3 7 7 0 15 53 72 66 72 8 0 14 7 14 16 0 9 13
21 29 27 16 6 36 23 45 39 10 15 24 28 32 28 8 0 12 4 9 10 -3 5 6 15 20 22
14 6 24 17 21 24 -3 7 7 14 25 18 17 3 29 12 29 21 0 8 12 18 26 21 16 4 23
12 20 20 -3 8 -1 14 4 14 5 0 28 18 50 40 22 22 45 40 50 40 6 0 10 7 10 15 0
8 7 15 15 15 8 0 15 5 15 11 0 5 5 7 12 3 7 -4 8 -3 4 4 -4 7 3 17 18 23 16 7
26 21 28 38 2 15 9 25 16 23 7 -1 12 3 11 10 -5 27 13 78 27 78 9 0 13 4 9 10
-3 5 3 18 14 29 12 12 18 27 15 36 -4 8 -1 15 6 15 7 0 10 7 6 15 -3 8 1 20 8
27 24 25 45 77 32 82 -6 2 -2 5 8 5 11 1 16 4 13 7 -3 4 -1 16 5 28 12 21 14
27 17 46 0 6 9 10 19 10 11 0 13 3 5 8 -8 5 -8 11 1 24 7 10 16 16 19 13 4 -3
5 -2 2 1 -2 4 2 21 10 39 7 19 11 36 7 39 -3 3 -1 6 5 6 6 0 17 15 24 33 14
32 15 37 18 58 0 5 5 8 10 5 5 -3 12 10 15 29 4 19 11 35 17 35 6 0 7 5 3 11
-3 6 -3 14 2 18 16 11 35 62 27 73 -4 8 0 9 12 4 16 -6 16 -4 4 11 -8 9 -9 14
-3 10 7 -4 19 10 30 33 10 22 24 40 29 40 6 0 3 5 -5 10 -11 7 -11 10 -2 10 7
0 10 5 7 10 -3 6 1 13 9 16 9 3 18 22 22 42 4 21 12 40 18 44 5 4 15 24 21 45
7 21 17 37 24 35 6 -1 11 3 10 10 -4 31 2 48 18 48 9 0 14 3 10 6 -7 7 12 64
28 84 7 8 18 34 24 58 7 23 16 42 21 42 4 0 12 15 15 33 4 17 13 39 20 47 12
14 24 44 26 65 0 6 7 14 15 18 8 4 14 15 14 23 0 8 5 12 10 9 6 -3 10 4 10 17
-1 25 -21 58 -36 58 -5 0 -15 15 -22 33 -9 23 -15 28 -21 19 -6 -10 -10 -3
-15 21 -4 23 -14 38 -26 42 -11 4 -18 10 -15 15 3 5 -3 15 -13 22 -18 13 -37
46 -34 61 1 4 -5 7 -13 7 -8 0 -15 5 -15 11 0 5 -6 7 -12 3 -8 -5 -8 -2 1 10
12 14 12 17 1 14 -8 -2 -19 7 -24 19 -6 12 -18 24 -28 26 -11 3 -16 11 -12 20
3 8 0 18 -5 22 -6 3 -8 11 -5 17 4 6 2 8 -4 4 -6 -3 -19 7 -28 24 -10 16 -24
30 -32 30 -7 0 -11 4 -8 8 3 5 -4 15 -15 22 -10 8 -19 20 -19 26 0 7 -7 15
-16 18 -8 3 -12 10 -9 16 3 5 1 10 -5 10 -7 0 -10 6 -7 14 8 20 -4 28 -21 13
-11 -8 -14 -8 -9 0 4 6 3 14 -3 18 -6 4 -8 10 -5 15 3 5 -4 14 -16 20 -11 7
-18 14 -15 17 7 8 -20 33 -36 33 -9 0 -10 2 -1 8 8 5 8 12 -2 25 -8 11 -14 14
-17 7 -2 -7 -10 4 -18 24 -7 20 -20 36 -27 36 -7 0 -13 9 -13 19 0 11 -9 22
-20 26 -12 4 -19 14 -17 24 4 23 32 52 42 43 5 -4 5 1 2 11 -5 12 -1 17 13 17
10 0 22 9 25 20 3 11 13 20 21 20 8 0 14 5 14 11 0 5 5 7 10 4 6 -3 10 1 10
10 0 9 9 19 20 22 11 3 20 12 20 19 0 8 4 14 10 14 5 0 6 7 3 17 -4 9 -2 14 3
10 14 -8 88 59 79 73 -3 6 -3 9 2 8 21 -5 54 16 59 38 4 14 9 23 11 20 3 -3
13 4 22 15 22 28 15 82 -13 111 -13 13 -26 31 -29 41 -4 11 -12 15 -19 11 -8
-5 -7 0 2 11 9 11 10 16 3 11 -7 -4 -13 -2 -13 3 0 6 -7 11 -16 11 -8 0 -13 4
-10 9 3 5 -1 14 -9 21 -8 7 -12 17 -8 23 3 5 2 7 -4 4 -5 -4 -16 6 -24 21 -8
15 -20 31 -27 35 -7 5 -10 12 -7 17 3 4 -2 10 -10 14 -9 3 -12 12 -8 22 4 11
3 15 -5 10 -12 -7 -44 33 -36 46 3 4 0 8 -6 8 -16 0 -61 51 -54 61 3 5 0 9 -6
9 -6 0 -8 5 -4 12 4 7 3 8 -4 4 -8 -4 -16 3 -22 19 -5 14 -16 28 -24 31 -8 3
-17 17 -21 31 -3 14 -8 23 -11 20 -3 -3 -13 2 -23 12 -10 10 -29 16 -46 15
-42 -3 -42 -3 -25 -14 12 -8 9 -10 -12 -10 -15 0 -30 -5 -33 -11 -4 -6 -14 -8
-22 -5 -11 4 -13 2 -9 -9 5 -14 -9 -19 -51 -18 -7 1 -10 -3 -7 -8 3 -5 -2 -9
-11 -9 -10 0 -13 -5 -9 -12 4 -7 4 -10 -1 -6 -4 4 -17 2 -29 -4 -21 -12 -27
-14 -47 -17 -5 0 -8 -5 -5 -10 4 -5 -7 -12 -24 -16 -17 -4 -28 -10 -25 -15 2
-4 -16 -13 -41 -20 -26 -8 -40 -16 -34 -20 7 -4 -3 -10 -24 -14 -19 -4 -42
-14 -51 -22 -8 -9 -23 -17 -33 -19 -9 -2 -19 -4 -22 -6 -15 -6 -150 -3 -150 4
0 4 -9 3 -20 -3 -12 -6 -20 -7 -20 -1 0 10 -19 9 -37 -2 -7 -5 -13 -4 -13 0 0
5 -62 10 -137 11 -135 3 -158 6 -149 21 3 4 -1 8 -8 8 -8 0 -12 -6 -10 -12 3
-6 -2 -12 -10 -12 -8 0 -12 5 -9 10 3 6 -7 8 -26 5 -17 -2 -31 -2 -31 1 0 4
-68 6 -151 6 -120 -1 -152 -4 -159 -15 -8 -12 -10 -11 -10 5 -1 17 -2 18 -13
5 -15 -19 -77 -24 -77 -7 0 9 -2 9 -8 0 -5 -8 -46 -13 -120 -15 -62 -1 -112
-6 -112 -11 0 -4 -5 -5 -11 -2 -14 10 -59 14 -59 6 0 -4 -9 -7 -20 -7 -11 0
-20 4 -20 9 0 4 -5 5 -12 1 -18 -11 -140 -12 -165 -1 -13 6 -23 15 -23 21 0 6
-5 4 -10 -4 -8 -13 -10 -12 -10 4 0 12 -5 16 -15 13 -8 -4 -17 -2 -20 3 -4 6
-16 10 -27 10 -12 0 -18 3 -15 7 8 7 -38 33 -59 33 -8 0 -14 5 -14 10 0 6 -7
10 -15 10 -7 0 -18 6 -22 13 -4 6 -25 20 -45 29 -21 10 -38 23 -38 28 0 6 -4
9 -10 5 -13 -8 -80 21 -80 35 0 6 -4 8 -10 5 -5 -3 -10 -1 -10 6 0 7 -3 9 -6
6 -8 -8 -46 12 -40 21 9 15 -68 6 -85 -9z m106 -169 c8 0 24 -8 34 -17 11 -9
27 -18 36 -20 8 -2 23 -5 33 -7 9 -3 22 -5 27 -6 6 -1 1 -5 -10 -10 -19 -8
-19 -9 2 -9 12 -1 24 -5 28 -11 3 -5 13 -6 22 -3 12 5 15 2 11 -9 -4 -8 -1
-15 8 -15 7 0 10 5 7 11 -4 6 2 3 13 -6 11 -10 30 -19 42 -21 12 -2 25 -7 29
-12 5 -4 2 -5 -4 -1 -7 4 -13 4 -13 1 0 -3 14 -11 30 -17 44 -15 49 -49 14
-96 -16 -20 -28 -40 -26 -44 1 -5 -4 -8 -12 -8 -7 0 -16 -9 -19 -21 -3 -12
-10 -18 -16 -14 -6 3 -11 -1 -11 -10 0 -8 -13 -29 -29 -46 -17 -17 -27 -37
-24 -45 3 -9 0 -14 -7 -12 -6 2 -17 -6 -23 -16 -7 -11 -24 -32 -39 -47 -16
-16 -28 -31 -28 -34 0 -4 -7 -13 -15 -22 -8 -8 -12 -19 -9 -25 4 -7 2 -8 -4
-4 -8 4 -16 -3 -22 -19 -6 -16 -14 -23 -22 -19 -8 5 -9 2 -5 -9 4 -10 -1 -22
-14 -31 -14 -10 -16 -15 -7 -18 7 -3 3 -7 -9 -10 -13 -3 -30 1 -40 9 -10 8
-12 11 -4 7 9 -5 12 -3 7 4 -4 7 -15 12 -25 12 -11 0 -24 12 -31 30 -7 16 -16
28 -20 25 -4 -3 -10 2 -14 10 -3 8 -13 15 -23 15 -14 0 -15 2 -5 9 10 6 8 10
-8 14 -12 3 -19 10 -16 16 4 5 1 13 -5 17 -8 4 -9 3 -5 -4 4 -7 2 -12 -3 -12
-6 0 -11 6 -11 14 0 7 -9 16 -21 19 -12 3 -18 10 -14 16 3 6 -1 11 -10 11 -8
0 -20 11 -27 25 -6 13 -14 22 -18 20 -4 -2 -12 7 -18 21 -9 19 -9 29 0 44 7
11 16 20 21 20 4 0 13 14 18 30 6 17 14 30 19 30 4 0 13 13 20 30 7 16 16 28
20 27 4 -1 8 0 7 3 -1 8 47 57 63 63 12 4 11 6 -2 6 -16 1 -16 3 2 21 11 11
20 25 20 30 0 6 7 10 15 10 10 0 15 7 13 18 -2 10 2 16 11 14 8 -2 11 3 8 12
-5 13 18 31 36 27 4 -1 7 4 5 11 -2 7 6 22 17 34 16 16 22 17 28 7 4 -7 14
-13 22 -13z m2530 -4 c8 -7 12 -16 9 -19 -3 -3 4 -10 15 -17 12 -6 19 -15 16
-21 -4 -5 1 -9 9 -9 9 0 18 -11 22 -25 3 -13 11 -23 17 -22 7 1 16 -13 21 -30
6 -18 15 -33 22 -33 7 0 15 -11 18 -25 4 -14 14 -25 23 -25 9 0 14 -3 10 -6
-3 -3 5 -17 18 -30 13 -13 26 -32 30 -43 3 -10 13 -22 21 -25 8 -3 12 -10 9
-16 -3 -5 -1 -10 5 -10 6 0 8 -4 5 -10 -3 -5 1 -10 9 -10 20 0 21 -39 1 -46
-8 -3 -17 -14 -20 -25 -4 -11 -11 -17 -16 -13 -5 3 -16 -10 -24 -28 -8 -18
-14 -30 -15 -25 0 4 -11 0 -25 -9 -14 -9 -22 -20 -20 -25 3 -5 -6 -11 -20 -15
-14 -3 -24 -9 -21 -11 6 -7 -19 -33 -32 -33 -5 0 -13 -11 -16 -24 -3 -13 -18
-29 -36 -36 -16 -7 -28 -17 -27 -23 1 -6 -9 -13 -22 -15 -18 -3 -22 0 -18 12
6 14 -6 28 -25 32 -5 1 -11 2 -15 3 -5 1 -1 6 7 11 10 6 11 10 3 10 -7 0 -13
6 -13 13 0 7 -9 18 -21 25 -12 7 -19 16 -16 19 7 7 -47 63 -61 63 -6 0 -9 7
-6 15 4 8 1 15 -5 15 -6 0 -8 6 -5 14 3 8 -3 16 -16 19 -11 3 -20 9 -19 14 4
23 -2 35 -16 29 -13 -5 -20 10 -16 37 0 4 -6 7 -14 7 -8 0 -15 6 -15 14 0 8
-9 18 -20 21 -17 5 -25 22 -21 47 0 4 -8 10 -19 13 -11 4 -20 13 -20 21 0 17
-25 46 -33 38 -2 -3 -7 4 -10 16 -4 15 0 20 13 20 10 0 20 7 24 15 3 8 12 15
21 15 8 0 14 5 13 12 -2 7 4 13 12 14 8 0 18 2 23 4 10 4 25 7 38 9 5 0 8 5 5
10 -5 8 32 24 59 25 6 1 13 7 16 15 5 13 23 20 57 23 6 1 12 5 12 10 0 11 58
37 83 38 10 0 25 -6 32 -14z m-1350 -188 c5 4 5 1 1 -6 -4 -7 -10 -10 -14 -8
-4 2 -7 -150 -7 -339 0 -189 3 -341 7 -339 5 3 8 0 8 -5 0 -6 -5 -11 -10 -11
-6 0 -9 -3 -9 -7 3 -21 -2 -32 -15 -27 -8 3 -17 1 -21 -5 -3 -6 -14 -11 -25
-11 -10 0 -21 -7 -24 -16 -3 -8 -10 -13 -15 -10 -5 3 -11 -4 -14 -15 -3 -12
-10 -18 -17 -14 -6 4 -17 1 -25 -5 -8 -6 -18 -9 -23 -6 -6 3 -12 -2 -14 -12
-3 -10 -11 -19 -19 -20 -31 -2 -47 -9 -63 -25 -10 -9 -22 -15 -27 -12 -5 4 -9
1 -9 -4 0 -6 -3 -10 -7 -10 -20 3 -34 -2 -28 -11 3 -5 1 -11 -4 -11 -6 -1 -17
-2 -23 -3 -7 -1 -12 -7 -11 -13 1 -6 -15 -14 -37 -18 -22 -4 -38 -11 -37 -17
1 -6 -14 -15 -32 -20 -19 -5 -40 -16 -46 -24 -10 -14 -30 -21 -62 -23 -7 -1
-13 -7 -13 -15 0 -15 -24 -16 -37 -1 -4 4 -3 5 4 1 6 -3 14 -3 17 2 2 4 -4 9
-15 9 -27 2 -51 22 -42 36 4 6 0 8 -9 4 -10 -3 -20 3 -29 19 -7 14 -22 27 -34
30 -12 3 -26 19 -33 36 -6 16 -16 27 -21 23 -6 -3 -16 6 -21 20 -5 14 -13 24
-17 22 -5 -3 -14 1 -21 9 -7 8 -9 14 -5 14 4 0 -7 8 -25 17 -18 9 -35 26 -38
39 -3 13 -11 24 -16 24 -14 0 -38 27 -31 34 4 3 1 6 -6 6 -16 0 -42 26 -34 34
4 3 -1 6 -9 6 -8 0 -27 11 -41 24 -24 22 -25 28 -16 56 6 17 23 37 38 45 14 8
21 14 14 15 -13 0 32 50 45 50 4 0 8 10 9 22 1 11 8 25 15 29 7 5 9 9 3 9 -5
1 0 5 13 11 13 5 21 13 18 18 -3 5 6 21 19 35 14 15 25 23 25 19 1 -12 24 29
27 47 1 8 11 21 22 29 12 7 21 20 21 27 0 8 7 14 16 14 8 0 13 4 10 8 -3 5 5
20 17 33 12 13 21 28 19 33 -2 4 4 6 12 3 10 -4 18 5 26 29 6 19 20 39 31 45
11 5 17 14 14 19 -3 5 -1 11 4 14 9 6 107 13 223 17 29 1 45 6 41 12 -4 6 -1
7 8 1 26 -16 49 -15 49 4 0 14 2 14 9 3 13 -20 38 -22 52 -5 10 12 14 12 25
-3 13 -17 14 -17 8 0 -7 19 15 21 28 3 4 -6 12 -6 20 0 7 6 53 12 103 13 49 1
91 4 94 7 2 2 9 -1 16 -6 7 -5 16 -6 20 -2z m265 1 c46 -1 85 -8 100 -17 23
-14 24 -14 12 1 -12 14 -11 16 7 14 12 -1 21 -6 21 -12 0 -5 5 -3 10 5 8 13
10 13 10 -1 0 -11 9 -16 34 -15 25 1 32 5 29 16 -3 11 -1 10 6 -2 9 -13 28
-17 89 -18 65 -1 156 -5 211 -9 8 -1 11 -7 7 -17 -6 -14 -4 -15 9 -4 9 7 15 9
14 4 -3 -19 14 -54 27 -54 8 0 14 -6 14 -12 0 -7 14 -27 30 -45 17 -18 30 -37
30 -42 0 -6 5 -11 10 -11 6 0 10 -7 10 -15 0 -7 6 -18 14 -22 7 -4 18 -18 25
-31 7 -13 17 -20 23 -16 7 5 9 1 5 -9 -3 -10 -2 -17 3 -17 6 0 10 -9 10 -20 0
-11 4 -19 8 -17 12 3 63 -54 56 -64 -3 -5 1 -9 8 -9 18 0 50 -58 35 -63 -6 -2
-3 -6 7 -10 10 -4 15 -3 11 3 -3 6 -2 10 4 10 5 0 12 -13 16 -30 4 -16 12 -30
20 -30 17 0 35 -23 40 -51 5 -24 -15 -49 -48 -62 -10 -4 -16 -11 -12 -17 3 -5
-6 -12 -20 -16 -13 -3 -22 -10 -19 -15 3 -5 -10 -18 -28 -29 -18 -11 -28 -20
-23 -20 6 0 3 -6 -6 -13 -9 -7 -17 -16 -17 -22 -1 -5 -6 -11 -12 -11 -5 -1
-14 -2 -19 -3 -5 0 -11 -10 -14 -22 -3 -12 -10 -18 -16 -14 -10 5 -15 -6 -12
-27 0 -3 -14 -11 -32 -17 -26 -9 -29 -14 -17 -21 13 -9 13 -10 0 -11 -8 -1
-18 -1 -22 0 -5 0 -8 -6 -8 -14 0 -8 -4 -15 -9 -15 -13 0 -71 -56 -71 -69 0
-6 -5 -11 -11 -11 -15 0 -39 -26 -32 -34 4 -3 -1 -6 -11 -6 -9 0 -14 5 -11 10
5 9 -15 15 -37 11 -5 0 -8 4 -8 9 0 6 -12 10 -26 10 -23 0 -25 2 -13 16 12 15
11 16 -9 10 -13 -5 -22 -3 -22 3 0 6 -12 11 -26 11 -14 0 -23 4 -19 9 5 9 -20
21 -53 27 -8 1 -20 11 -29 21 -8 11 -12 12 -8 3 4 -8 -3 -4 -15 10 -13 14 -29
24 -36 22 -8 -2 -14 2 -14 8 0 5 -3 9 -7 9 -5 -1 -17 -1 -28 0 -17 1 -18 3 -5
11 13 9 8 14 -12 11 -15 -2 -78 30 -74 38 3 4 0 8 -7 9 -12 1 -48 9 -57 12 -3
1 -9 2 -14 1 -5 -1 -4 4 3 12 9 12 9 15 -1 14 -32 -1 -49 4 -43 13 3 6 0 10
-8 10 -21 0 -68 26 -60 33 3 4 2 7 -3 7 -7 0 -12 629 -5 711 1 11 10 14 34 13
17 -2 66 -4 107 -5z m-265 -68 c3 -5 2 -12 -3 -15 -5 -3 -9 1 -9 9 0 17 3 19
12 6z m-2 -136 c-7 -21 -12 -19 -10 4 0 11 5 18 9 15 4 -3 5 -11 1 -19z m2
-34 c3 -5 2 -12 -3 -15 -5 -3 -9 1 -9 9 0 17 3 19 12 6z m0 -70 c3 -5 2 -12
-3 -15 -5 -3 -9 1 -9 9 0 17 3 19 12 6z m-2 -136 c-7 -21 -12 -19 -10 4 0 11
5 18 9 15 4 -3 5 -11 1 -19z m2 -34 c3 -5 2 -12 -3 -15 -5 -3 -9 1 -9 9 0 17
3 19 12 6z m-2 -86 c-7 -21 -12 -19 -10 4 0 11 5 18 9 15 4 -3 5 -11 1 -19z
m2 -34 c3 -5 2 -12 -3 -15 -5 -3 -9 1 -9 9 0 17 3 19 12 6z m0 -60 c3 -5 2
-12 -3 -15 -5 -3 -9 1 -9 9 0 17 3 19 12 6z m-1185 -96 c14 -8 21 -15 15 -15
-5 0 -2 -5 8 -11 9 -6 15 -14 13 -18 -3 -5 6 -13 20 -20 14 -6 23 -15 20 -20
-3 -4 7 -14 21 -20 15 -7 33 -21 41 -32 7 -11 18 -17 23 -14 5 4 9 0 9 -9 0
-8 13 -27 29 -42 17 -15 28 -31 25 -36 -3 -4 2 -8 11 -8 9 0 30 -15 47 -32 18
-18 34 -32 35 -30 2 1 3 -1 2 -4 0 -4 11 -14 25 -24 15 -9 23 -20 19 -23 -3
-4 -1 -7 5 -7 7 0 12 -6 12 -14 0 -8 10 -16 23 -19 24 -7 59 -72 64 -122 1
-16 5 -46 8 -65 5 -30 11 -99 14 -165 1 -17 3 -17 11 -5 6 9 10 10 10 3 0 -7
-8 -17 -17 -23 -17 -11 -17 -11 0 -6 14 4 17 -1 18 -32 0 -20 2 -48 4 -62 3
-14 7 -61 10 -105 3 -43 10 -82 16 -86 6 -3 12 -34 13 -68 0 -33 3 -61 6 -61
3 0 6 -25 7 -56 1 -31 6 -61 12 -68 5 -6 8 -24 7 -39 -2 -15 0 -27 5 -27 5 0
6 -7 2 -16 -3 -9 0 -20 8 -25 8 -5 9 -9 3 -9 -6 0 -11 -7 -11 -15 0 -8 7 -15
15 -15 11 0 12 -3 4 -13 -7 -8 -7 -18 -2 -27 13 -20 13 -87 1 -95 -6 -3 -15 4
-21 15 -6 11 -17 20 -25 20 -8 0 -15 5 -15 11 0 5 -4 8 -9 4 -6 -3 -13 1 -18
8 -4 7 -16 17 -26 20 -10 4 -15 11 -12 17 3 5 1 10 -4 10 -6 0 -13 0 -16 0 -2
0 -17 12 -31 25 -15 14 -33 25 -41 25 -7 0 -16 6 -19 14 -3 8 -17 17 -30 20
-14 4 -22 10 -19 15 2 5 -2 12 -11 15 -10 4 -13 2 -9 -7 4 -6 0 -4 -8 6 -8 9
-22 17 -31 17 -9 0 -15 6 -13 13 1 6 -4 11 -11 9 -8 -1 -16 7 -19 18 -3 11 -9
18 -13 15 -4 -2 -22 9 -40 25 -18 16 -37 27 -41 24 -5 -2 -23 9 -40 26 -18 16
-34 28 -36 26 -2 -2 -20 11 -40 30 -19 18 -38 32 -42 31 -3 -1 -7 3 -9 8 -4
15 -51 37 -62 30 -6 -3 -10 3 -10 15 0 11 -6 20 -12 19 -19 -3 -49 12 -43 21
3 5 -11 14 -30 21 -19 7 -35 19 -35 27 0 7 -4 11 -9 7 -6 -3 -15 4 -21 15 -6
11 -14 19 -18 19 -21 -3 -32 3 -32 17 0 10 -6 14 -14 11 -8 -3 -17 1 -20 9 -3
8 -10 14 -16 14 -5 0 -19 9 -30 20 -12 12 -25 18 -29 15 -5 -2 -11 2 -15 10
-3 8 -12 15 -20 15 -10 0 -13 6 -9 17 4 10 2 14 -4 10 -6 -4 -17 -1 -25 6 -7
8 -19 12 -27 9 -10 -3 -12 0 -8 11 5 13 -3 19 -33 28 -22 7 -37 16 -34 20 3 5
-1 9 -8 9 -10 0 -10 2 0 9 8 4 13 11 13 15 -4 27 1 35 16 29 10 -4 14 -2 9 5
-3 6 0 14 7 19 8 4 19 18 26 31 7 12 17 20 23 16 6 -4 9 -1 6 7 -3 8 0 19 6
25 24 25 56 64 56 69 0 3 0 9 0 13 0 5 11 14 24 21 27 15 50 57 39 74 -4 7 1
6 10 -2 15 -12 17 -11 17 3 0 9 4 16 10 16 5 0 7 7 4 15 -4 9 0 15 8 15 8 0
20 16 28 35 7 19 16 33 19 31 9 -5 31 21 24 28 -3 3 2 8 11 12 9 3 16 12 16
19 0 8 4 17 10 20 6 3 7 -2 4 -12 -3 -10 5 0 17 22 13 22 22 44 21 48 -1 5 2
6 7 3 5 -4 12 3 16 14 4 12 11 17 18 13 7 -4 6 1 -2 11 -12 14 -12 17 -1 14 7
-2 19 8 27 22 7 14 17 24 23 23 5 -2 10 6 10 18 0 11 5 17 10 14 6 -3 14 5 20
19 11 30 16 31 50 11z m2535 -16 c-4 -5 -1 -9 4 -9 6 0 11 -6 11 -13 0 -8 11
-20 25 -27 14 -7 25 -19 25 -27 0 -7 5 -13 11 -13 6 0 9 -6 6 -14 -3 -8 2 -16
14 -19 11 -3 19 -14 19 -26 0 -12 6 -21 14 -21 14 0 32 -36 28 -52 -1 -5 5 -8
13 -8 8 0 15 -4 15 -10 0 -5 8 -10 18 -10 14 0 15 -2 2 -10 -13 -8 -12 -10 3
-10 9 0 17 -7 17 -15 0 -8 9 -19 20 -25 11 -6 19 -14 19 -18 -2 -15 14 -52 21
-47 4 2 12 -7 18 -20 7 -14 16 -25 21 -25 5 0 12 -11 15 -25 4 -14 13 -25 20
-25 8 0 16 -9 19 -21 4 -14 10 -18 18 -13 9 5 10 2 6 -9 -4 -10 0 -20 11 -26
9 -6 13 -11 7 -11 -5 0 1 -7 13 -16 12 -8 22 -22 22 -30 0 -8 4 -14 9 -14 6 0
16 -12 24 -27 7 -16 19 -27 25 -26 7 2 12 -9 12 -25 0 -21 2 -24 10 -12 5 8
10 12 10 8 0 -3 3 -13 6 -22 4 -10 1 -16 -10 -16 -10 0 -13 -5 -9 -17 5 -12 2
-15 -10 -10 -8 3 -21 -1 -27 -8 -7 -8 -16 -12 -21 -9 -5 3 -6 -2 -3 -11 4 -9
3 -15 -2 -14 -21 3 -54 -15 -59 -32 -4 -11 -11 -17 -16 -14 -5 4 -9 2 -9 -3 0
-4 -16 -14 -35 -22 -20 -8 -30 -17 -24 -20 9 -6 -14 -19 -44 -24 -4 0 -11 -6
-15 -13 -4 -7 -23 -19 -42 -27 -19 -8 -29 -15 -22 -16 6 0 12 -4 12 -10 0 -5
-7 -7 -15 -4 -8 4 -15 1 -15 -5 0 -6 -7 -8 -17 -4 -11 4 -14 3 -9 -5 4 -8 -3
-16 -19 -22 -17 -6 -24 -14 -19 -22 4 -7 4 -10 -1 -6 -4 4 -17 2 -29 -4 -11
-7 -24 -11 -28 -10 -4 1 -5 -5 -2 -13 4 -11 -1 -15 -17 -15 -28 0 -52 -14 -47
-26 1 -5 -11 -13 -29 -18 -18 -6 -36 -20 -42 -33 -6 -13 -15 -22 -20 -19 -5 3
-11 0 -14 -8 -3 -8 -21 -17 -39 -21 -29 -7 -30 -9 -13 -16 20 -7 20 -8 -1 -8
-11 -1 -24 -4 -28 -8 -4 -5 -13 -8 -19 -8 -7 -1 -11 -6 -10 -13 3 -11 -3 -14
-23 -11 -3 0 -14 -9 -23 -20 -10 -11 -21 -18 -25 -14 -3 3 -6 1 -6 -6 0 -7 -4
-9 -10 -6 -6 4 -7 -1 -3 -11 4 -11 3 -15 -5 -10 -6 3 -13 2 -17 -4 -3 -5 -15
-10 -26 -10 -11 0 -18 -4 -15 -9 3 -5 -1 -14 -9 -21 -11 -9 -15 -10 -15 -1 0
8 -5 7 -15 -3 -8 -8 -15 -19 -15 -25 0 -9 -8 -12 -35 -11 -12 1 -33 -26 -28
-34 3 -5 0 -7 -8 -4 -8 3 -20 -1 -27 -9 -8 -7 -18 -10 -24 -7 -6 4 -9 1 -6 -7
6 -18 -19 -42 -33 -33 -8 4 -9 3 -5 -4 4 -7 -3 -14 -19 -18 -14 -3 -25 -12
-25 -20 0 -8 -9 -14 -19 -14 -17 0 -19 6 -16 48 2 26 4 47 5 47 1 0 4 27 6 60
6 83 6 85 17 78 6 -4 8 5 5 21 -3 14 -2 29 2 31 5 3 6 15 2 27 -4 16 -2 19 9
13 12 -8 12 -6 0 8 -11 14 -11 18 0 22 8 3 15 16 15 30 1 16 -2 22 -10 18 -8
-5 -8 -3 1 8 10 13 18 61 26 154 1 17 6 37 12 45 5 8 10 23 10 32 1 14 -1 15
-12 6 -11 -8 -12 -7 -7 6 3 9 9 16 13 16 4 0 9 19 10 43 1 23 4 58 7 77 2 19
5 53 7 76 1 23 9 49 17 60 9 10 10 15 3 10 -7 -4 -13 -2 -13 3 0 6 4 11 8 11
5 0 9 6 9 13 0 6 4 48 8 92 4 44 8 86 8 93 0 6 6 12 14 12 7 0 13 6 13 14 0 8
9 18 20 21 11 3 20 13 20 21 0 8 5 12 11 9 6 -4 13 2 16 13 2 11 16 25 29 31
14 6 22 16 19 21 -6 9 8 14 28 11 4 0 7 5 7 12 0 15 44 57 59 57 5 0 13 10 16
21 6 17 9 19 16 8 7 -11 9 -10 9 4 0 9 5 17 11 17 5 0 8 3 6 8 -5 7 15 30 30
35 5 1 7 6 5 10 -1 5 7 11 18 14 11 3 20 10 20 15 0 5 4 7 9 4 5 -3 11 3 14
14 3 11 12 20 20 20 8 0 17 11 21 23 7 29 44 48 69 35 10 -5 15 -13 12 -19z
m-1242 -107 c-3 -10 11 -17 20 -10 6 5 86 -46 82 -53 -3 -4 5 -5 17 -2 17 3
19 2 10 -5 -10 -7 -6 -11 16 -15 16 -3 37 -13 45 -22 9 -8 22 -15 29 -15 8 0
19 -5 26 -12 7 -7 12 -8 12 -3 0 5 7 0 16 -11 8 -10 12 -12 8 -5 -5 10 3 7 22
-6 16 -11 32 -21 37 -22 4 -1 7 -4 8 -8 1 -5 22 -14 47 -21 34 -10 42 -16 31
-23 -11 -7 -9 -9 9 -10 39 -3 43 -4 50 -15 4 -6 17 -14 30 -18 12 -4 22 -12
22 -17 0 -5 6 -9 14 -9 8 0 22 -10 30 -22 10 -13 16 -17 16 -9 0 8 2 12 5 9 7
-7 -5 -39 -14 -34 -3 2 -7 -12 -7 -32 -1 -21 -5 -71 -9 -112 -5 -41 -8 -87 -8
-101 -1 -20 -5 -26 -16 -21 -14 5 -14 3 -3 -10 8 -10 9 -19 3 -22 -5 -4 -9
-14 -9 -24 0 -9 -3 -53 -7 -97 -4 -44 -8 -86 -8 -93 0 -7 -7 -10 -16 -7 -12 5
-11 2 3 -14 13 -14 14 -21 5 -27 -8 -5 -10 -3 -4 7 5 8 4 11 0 7 -5 -5 -9 -23
-11 -40 -1 -18 -5 -64 -9 -103 -4 -38 -8 -81 -9 -95 -1 -14 -7 -30 -15 -36
-11 -8 -11 -13 -2 -18 9 -6 9 -11 0 -22 -9 -11 -8 -14 2 -14 12 0 12 -2 0 -9
-8 -5 -11 -16 -8 -24 3 -8 0 -20 -6 -26 -13 -13 -19 -43 -6 -35 5 3 9 0 9 -5
0 -6 -6 -11 -12 -11 -8 0 -14 -17 -15 -48 -1 -26 -4 -65 -7 -87 -2 -22 -5 -54
-5 -72 -1 -29 -5 -33 -38 -39 -31 -6 -34 -8 -18 -15 21 -8 18 -9 -34 -13 -11
0 -23 -4 -27 -9 -4 -4 -20 -7 -35 -7 -21 0 -27 -4 -23 -15 4 -10 0 -13 -15
-10 -11 2 -23 0 -26 -6 -4 -5 -16 -9 -27 -9 -11 0 -27 -8 -35 -17 -8 -11 -11
-12 -7 -3 7 13 5 13 -9 1 -9 -7 -24 -11 -32 -7 -9 3 -13 2 -10 -4 3 -6 -3 -10
-15 -10 -11 0 -23 -7 -26 -15 -4 -10 -9 -11 -17 -3 -9 8 -12 89 -11 287 2 327
0 301 19 301 9 0 20 10 25 23 5 12 9 18 9 14 1 -12 31 19 31 32 0 6 3 10 8 8
4 -1 18 8 32 21 13 12 28 22 32 22 5 0 6 5 3 10 -3 6 1 10 9 10 9 0 16 4 16 9
0 5 9 11 21 14 12 3 18 10 15 15 -3 5 6 14 20 21 15 7 22 16 18 23 -5 7 -2 9
9 5 10 -4 18 1 22 13 3 10 15 22 26 25 10 4 17 10 14 15 -3 5 -1 11 5 15 6 4
8 11 5 16 -4 5 1 9 10 9 15 0 15 1 1 16 -9 8 -14 20 -11 24 13 21 -45 29 -240
30 -116 1 -261 2 -322 3 -62 0 -115 -2 -119 -5 -3 -4 -17 -3 -30 2 -13 5 -26
5 -29 1 -3 -5 -14 -7 -24 -4 -24 6 -61 -29 -56 -54 2 -10 4 -22 4 -26 1 -5 5
-6 9 -3 5 3 14 -10 20 -28 8 -22 23 -38 42 -46 16 -7 27 -16 24 -21 -3 -5 0
-9 6 -9 13 0 46 -30 33 -30 -4 0 3 -6 17 -13 14 -8 24 -18 23 -24 -1 -6 9 -14
22 -17 14 -4 25 -11 25 -16 0 -11 35 -49 48 -52 15 -3 31 -26 24 -34 -4 -5 -3
-6 2 -2 13 11 36 -11 37 -36 0 -20 1 -21 9 -1 8 17 9 17 7 -7 -1 -15 -4 -25
-7 -23 -3 2 -5 -106 -5 -240 0 -144 4 -241 9 -238 5 4 6 1 2 -6 -4 -6 -2 -18
4 -26 7 -8 10 -16 6 -16 -23 -5 -32 -4 -43 3 -11 9 -55 20 -80 21 -7 0 -13 3
-13 7 0 10 -48 30 -71 30 -24 0 -51 24 -41 36 4 5 1 4 -7 -3 -14 -12 -54 0
-112 32 -14 8 -29 12 -33 8 -3 -3 -6 0 -7 8 0 8 -2 23 -5 34 -2 11 -5 44 -7
73 -1 30 -6 51 -12 48 -6 -2 -10 19 -10 50 0 30 -2 54 -6 54 -3 0 -4 16 -3 35
2 22 -2 38 -9 41 -7 2 -13 23 -14 47 -4 100 -15 182 -26 196 -9 12 -9 13 1 7
6 -4 12 -3 12 3 0 5 -5 11 -12 13 -6 2 -13 22 -14 44 -1 21 -6 71 -9 109 -4
39 -7 78 -6 87 0 11 -6 15 -17 11 -14 -4 -14 -3 -3 5 18 13 24 45 8 39 -8 -3
-12 10 -13 37 -4 111 -16 192 -32 205 -16 13 -16 13 1 8 9 -4 17 -2 17 2 0 5
-5 11 -11 13 -7 2 -13 25 -15 51 -4 43 -2 48 21 57 14 5 25 14 25 20 0 5 3 9
8 9 16 -4 72 23 66 32 -3 5 4 9 15 9 12 0 21 4 21 8 0 5 18 14 40 21 22 7 38
16 35 21 -4 6 -1 11 4 11 26 3 30 4 37 12 4 4 15 7 25 7 10 0 21 5 25 12 5 7
3 8 -6 3 -9 -5 -11 -4 -6 4 4 7 13 10 19 8 6 -2 23 2 36 9 14 7 28 11 33 8 4
-3 5 2 2 11 -4 9 -3 15 2 14 5 -1 12 0 17 1 14 5 27 8 42 9 8 0 12 7 9 15 -4
11 1 14 20 12 17 -2 26 2 26 10 0 8 7 14 15 14 8 0 15 5 15 10 0 6 3 9 8 9 19
-3 33 2 27 11 -3 6 1 7 9 4 9 -3 16 -1 16 4 0 6 8 12 18 14 27 6 77 -8 75 -20z
m667 -846 c0 -3 -4 -8 -10 -11 -5 -3 -10 -1 -10 4 0 6 5 11 10 11 6 0 10 -2
10 -4z m1047 -11 c0 -8 -4 -12 -7 -10 -4 3 -10 -13 -14 -34 -3 -21 -13 -44
-21 -51 -8 -7 -15 -19 -15 -26 0 -8 -4 -14 -9 -14 -6 0 -8 -9 -6 -20 2 -13 -2
-20 -11 -20 -8 0 -13 -4 -9 -9 3 -5 -2 -17 -11 -25 -9 -9 -11 -16 -4 -16 6 0
8 -5 5 -10 -4 -6 -10 -8 -15 -5 -4 3 -11 -13 -15 -35 -4 -22 -12 -38 -18 -37
-6 1 -11 -8 -12 -20 0 -12 -3 -25 -7 -29 -5 -4 -8 -16 -8 -26 0 -11 -4 -16
-10 -13 -5 3 -10 1 -10 -5 0 -7 -12 -35 -26 -64 -14 -28 -28 -62 -30 -76 -3
-14 -12 -30 -21 -37 -8 -7 -13 -19 -10 -27 4 -9 1 -18 -5 -22 -7 -5 -8 -2 -4
7 4 8 1 5 -8 -5 -8 -10 -13 -23 -10 -27 3 -5 0 -9 -6 -9 -7 0 -10 -7 -6 -15 3
-9 -2 -24 -12 -34 -18 -19 -24 -34 -26 -66 -1 -11 -8 -23 -18 -27 -9 -4 -19
-24 -23 -47 -4 -23 -12 -44 -17 -47 -7 -5 -8 -2 -3 6 5 8 4 11 -3 6 -6 -4 -9
-13 -5 -21 3 -10 -1 -15 -13 -16 -13 0 -14 -2 -5 -6 11 -4 11 -7 0 -13 -7 -5
-14 -18 -16 -31 -2 -12 -11 -28 -21 -36 -11 -10 -12 -12 -2 -8 12 5 12 4 -1
-7 -9 -7 -14 -18 -12 -25 2 -6 0 -14 -6 -17 -6 -4 -8 -13 -4 -21 3 -9 -1 -15
-11 -15 -9 0 -17 -7 -17 -15 -1 -8 -2 -18 -4 -22 -13 -50 -18 -63 -24 -64 -36
-7 -53 -4 -62 13 -5 10 -14 16 -19 13 -5 -3 -11 -1 -15 5 -3 5 -1 10 5 10 6 0
8 5 5 10 -4 6 -10 8 -14 6 -11 -7 -36 11 -36 26 0 7 -8 12 -18 10 -10 -2 -17
4 -17 14 0 10 -5 14 -16 10 -8 -3 -12 -2 -9 4 3 6 -5 14 -20 20 -14 5 -28 17
-31 25 -4 8 -13 15 -21 15 -8 0 -12 4 -9 8 3 5 -6 15 -19 22 -13 7 -22 16 -20
20 4 7 -21 19 -47 24 -5 0 -7 4 -5 8 3 10 -36 37 -45 32 -5 -3 -8 0 -8 7 0 17
-61 70 -72 63 -5 -3 -7 0 -6 7 2 7 -7 18 -19 24 -13 5 -23 13 -23 18 0 4 -4 5
-10 2 -15 -9 -12 4 5 21 8 9 15 12 15 8 0 -4 9 2 20 14 12 12 25 22 31 22 5 0
21 12 35 27 13 14 34 32 47 38 12 6 21 18 19 25 -3 11 0 11 12 0 11 -8 16 -9
16 -1 0 6 11 13 24 17 17 4 23 11 19 22 -5 11 -2 14 9 9 10 -3 19 0 22 8 3 9
12 12 22 8 12 -4 15 -3 10 5 -4 7 -1 15 8 18 9 3 13 11 9 17 -4 6 0 8 10 4 10
-3 17 -2 17 3 0 5 11 12 25 16 14 3 23 9 20 14 -5 7 44 35 58 32 4 -1 7 5 7
13 0 14 12 19 33 16 4 0 7 4 7 11 0 6 3 8 7 5 3 -4 12 2 20 13 8 11 23 20 34
20 12 0 17 4 14 11 -4 6 2 13 14 16 11 3 18 9 15 14 -5 8 9 13 29 10 4 0 7 3
7 9 0 5 7 10 15 10 9 0 18 7 21 15 4 8 12 15 20 15 7 0 18 9 24 20 6 11 14 19
18 18 12 -4 56 24 75 48 10 13 21 23 25 22 13 -2 42 14 37 21 -2 4 12 13 31
20 18 7 34 17 34 22 0 5 11 14 25 19 14 5 25 14 25 19 0 9 33 24 54 26 5 0 12
9 17 20 4 11 8 16 8 11 1 -6 10 0 21 12 24 26 27 27 27 7z m-3502 -6 c-4 -6 3
-13 15 -16 16 -4 18 -8 8 -14 -10 -7 -10 -9 3 -9 24 0 80 -30 86 -46 3 -8 14
-14 25 -14 10 0 16 -4 13 -10 -3 -5 1 -10 9 -10 9 0 16 -4 16 -10 0 -5 7 -7
15 -4 9 4 15 1 15 -8 0 -16 37 -41 50 -33 6 4 10 -1 10 -9 0 -8 9 -18 20 -21
11 -3 20 -10 20 -15 0 -10 40 -25 54 -21 5 1 3 -6 -5 -15 -8 -10 -9 -15 -2
-11 6 4 17 1 25 -6 7 -7 18 -14 23 -15 6 -1 18 -9 28 -17 9 -8 22 -15 28 -15
5 0 7 -6 3 -12 -6 -10 -4 -10 8 0 13 10 16 9 21 -9 3 -11 10 -18 16 -14 7 4 8
0 5 -10 -4 -9 -3 -15 2 -14 14 4 64 -23 59 -31 -2 -4 14 -13 37 -19 27 -8 37
-16 29 -21 -10 -5 -8 -9 4 -14 9 -3 21 -3 27 0 5 3 12 -3 15 -15 3 -12 12 -21
19 -21 8 0 14 -5 14 -11 0 -5 4 -8 9 -4 5 3 16 -2 24 -10 9 -8 20 -15 26 -15
6 0 11 -7 11 -15 0 -8 5 -16 10 -16 6 -1 16 -2 23 -3 6 -1 11 -9 11 -19 -2
-13 3 -16 17 -12 11 4 19 2 19 -4 0 -6 7 -11 15 -11 9 0 18 -7 21 -15 4 -8 10
-13 14 -10 4 3 13 -2 20 -10 7 -8 16 -12 21 -9 5 3 9 0 9 -6 0 -17 25 -39 62
-55 18 -8 29 -14 25 -15 -4 0 -2 -6 5 -14 7 -7 18 -11 25 -9 8 3 11 -3 8 -17
-5 -26 -15 -40 -15 -21 0 9 -4 9 -14 -1 -8 -7 -12 -16 -9 -20 2 -5 -7 -13 -21
-19 -14 -7 -23 -15 -21 -19 2 -4 -3 -16 -11 -26 -9 -10 -13 -12 -9 -4 4 8 -3
4 -14 -10 -11 -14 -21 -20 -21 -15 -1 6 -8 -2 -16 -17 -8 -16 -21 -28 -29 -28
-8 0 -14 -5 -12 -12 1 -7 -4 -12 -11 -13 -8 0 -20 -11 -27 -25 -8 -14 -15 -20
-15 -15 0 6 -6 -1 -13 -15 -8 -14 -19 -24 -25 -23 -7 2 -12 -1 -12 -7 0 -15
-42 -50 -53 -43 -6 3 -7 2 -4 -4 3 -5 -7 -20 -24 -33 -16 -14 -29 -30 -29 -37
0 -6 -9 -14 -19 -18 -11 -3 -23 -14 -26 -24 -3 -11 -19 -21 -36 -25 -34 -6
-53 0 -44 15 3 5 0 6 -7 4 -8 -3 -14 2 -15 12 -2 30 -8 47 -25 73 -9 14 -20
39 -24 55 -4 17 -13 35 -20 40 -13 9 -22 39 -23 78 -1 9 -8 17 -16 17 -8 0
-15 5 -15 10 0 19 -3 25 -19 37 -9 6 -13 15 -8 19 4 4 0 18 -8 31 -9 13 -12
23 -8 23 4 0 -2 7 -13 16 -10 8 -14 13 -7 9 7 -3 0 19 -16 48 -16 30 -34 71
-41 91 -6 20 -16 36 -21 36 -5 0 -9 7 -9 15 0 8 -4 15 -9 15 -8 0 -12 11 -26
63 -2 4 -3 14 -4 23 0 8 -5 12 -11 9 -5 -3 -11 -1 -11 4 -1 6 -2 14 -4 19 -14
51 -19 62 -30 62 -7 0 -11 10 -10 25 2 14 -1 25 -6 25 -5 0 -9 7 -9 15 0 8 -6
15 -12 15 -10 0 -10 2 0 9 11 6 10 10 -3 15 -10 3 -15 12 -11 21 3 8 1 15 -4
15 -6 0 -10 9 -10 21 0 11 -4 17 -10 14 -5 -3 -10 3 -10 14 0 12 -4 21 -10 21
-5 0 -14 10 -21 21 -6 12 -7 19 -1 15 5 -3 2 10 -6 29 -9 19 -20 31 -26 28 -6
-4 -4 2 4 12 8 10 9 16 3 11 -9 -5 -16 7 -24 39 -6 25 -15 48 -20 51 -5 3 -6
-3 -2 -13 3 -10 3 -15 -1 -12 -4 4 -8 16 -11 28 -3 16 1 21 16 21 12 0 17 -4
14 -11z m1678 -384 c-7 -21 -12 -19 -10 4 0 11 5 18 9 15 4 -3 5 -11 1 -19z
m2 -34 c3 -5 2 -12 -3 -15 -5 -3 -9 1 -9 9 0 17 3 19 12 6z m-455 -11 c0 -5
-2 -10 -4 -10 -3 0 -8 5 -11 10 -3 6 -1 10 4 10 6 0 11 -4 11 -10z m455 -59
c3 -5 2 -12 -3 -15 -5 -3 -9 1 -9 9 0 17 3 19 12 6z m-2 -136 c-7 -21 -12 -19
-10 4 0 11 5 18 9 15 4 -3 5 -11 1 -19z m2 -34 c3 -5 2 -12 -3 -15 -5 -3 -9 1
-9 9 0 17 3 19 12 6z m-2 -86 c-7 -21 -12 -19 -10 4 0 11 5 18 9 15 4 -3 5
-11 1 -19z m2 -34 c3 -5 2 -12 -3 -15 -5 -3 -9 1 -9 9 0 17 3 19 12 6z m-402
-88 c-4 -9 0 -11 11 -7 9 3 16 1 16 -6 0 -6 5 -8 10 -5 6 3 10 1 10 -5 0 -6 5
-8 10 -5 6 3 10 1 10 -5 0 -6 4 -9 8 -6 5 3 20 -1 35 -9 17 -9 27 -10 27 -3 0
7 4 7 13 -1 8 -6 17 -8 21 -4 4 4 4 0 1 -9 -5 -13 -2 -16 14 -13 12 2 21 0 21
-6 0 -5 3 -8 8 -8 24 4 52 -2 47 -11 -3 -5 22 -15 55 -22 50 -10 60 -16 60
-33 0 -16 2 -17 10 -5 7 12 9 10 7 -7 0 -12 -4 -20 -7 -18 -3 2 -5 -259 -5
-580 0 -321 3 -581 7 -579 4 2 10 0 13 -6 4 -6 1 -9 -6 -8 -6 2 -14 -3 -17
-11 -3 -10 0 -11 9 -5 12 7 12 5 0 -9 -12 -15 -12 -17 0 -14 8 2 11 2 6 0 -4
-3 -5 -9 -2 -14 4 -5 -1 -6 -9 -3 -9 3 -16 12 -16 20 0 7 -6 11 -14 8 -9 -3
-17 3 -21 15 -3 12 -13 21 -21 21 -8 0 -19 10 -24 23 -5 13 -9 16 -10 7 0 -13
-2 -13 -9 0 -6 8 -7 18 -5 22 5 7 -10 12 -28 9 -5 0 -8 3 -8 8 0 12 -58 71
-70 71 -6 0 -10 5 -10 10 0 6 -7 10 -15 10 -8 0 -15 7 -15 15 0 8 -8 15 -17
15 -14 0 -15 2 -5 9 10 6 9 10 -7 14 -12 3 -21 12 -21 21 0 9 -8 16 -20 16
-12 0 -20 7 -20 16 0 10 -6 14 -15 10 -8 -3 -14 -1 -12 3 2 9 -53 61 -65 61
-4 0 -10 9 -13 20 -4 11 -11 18 -16 14 -6 -3 -13 3 -16 14 -2 11 -13 22 -24
25 -10 3 -19 12 -19 21 0 9 -8 16 -20 16 -11 0 -20 7 -20 15 0 8 -6 15 -13 15
-13 0 -30 17 -60 60 -10 14 -20 24 -23 22 -9 -5 -63 52 -57 61 3 6 1 7 -4 4
-6 -4 -16 0 -23 8 -6 7 -18 11 -26 8 -11 -4 -15 0 -12 13 2 13 -4 20 -20 22
-12 2 -20 8 -17 13 4 5 -1 12 -10 15 -13 5 -13 9 -3 22 11 13 10 15 -4 9 -10
-3 -26 3 -43 19 -14 13 -28 24 -31 24 -11 0 -33 28 -27 34 4 3 -1 6 -10 6 -10
0 -17 8 -17 21 0 11 5 17 10 14 6 -3 10 -1 10 5 0 15 26 41 34 33 6 -6 10 12
7 30 -1 4 4 7 11 5 15 -3 78 55 78 72 0 6 4 9 10 5 5 -3 17 6 26 20 9 13 21
22 27 18 6 -4 8 0 4 10 -5 13 -1 17 14 17 11 0 18 4 15 9 -3 4 8 19 26 32 57
44 68 56 68 75 0 14 3 15 8 6 6 -9 12 -5 20 13 7 14 16 24 21 21 5 -3 12 1 15
10 3 8 10 12 16 9 5 -3 7 0 4 8 -3 9 3 17 18 21 19 5 20 8 8 16 -12 8 -11 10
8 10 12 0 22 5 22 11 0 6 7 9 15 5 8 -3 14 -2 13 2 -1 4 2 17 6 30 6 19 14 22
46 20 27 -1 36 -6 33 -15z m997 2 c0 -8 8 -15 18 -15 12 0 13 -3 4 -8 -8 -6
-1 -13 23 -22 19 -7 32 -17 29 -21 -2 -4 9 -13 25 -20 16 -7 27 -17 25 -21 -3
-4 -1 -8 5 -8 5 0 28 -17 50 -37 62 -58 75 -68 83 -66 5 2 8 -4 8 -13 0 -8 4
-13 8 -10 4 2 14 1 22 -5 13 -7 13 -9 0 -9 -8 -1 0 -7 18 -15 17 -8 32 -19 32
-25 0 -6 4 -9 9 -5 5 3 12 -4 16 -15 3 -11 11 -20 16 -20 6 0 21 -11 34 -24
13 -14 34 -27 45 -31 11 -4 18 -10 15 -15 -3 -4 6 -11 19 -14 13 -3 26 -15 29
-27 3 -12 10 -19 15 -15 5 3 9 -1 9 -9 0 -8 -4 -12 -9 -9 -4 3 -8 0 -8 -7 0
-13 -38 -49 -52 -49 -5 0 -6 -5 -3 -11 4 -5 -7 -15 -24 -22 -17 -6 -31 -17
-31 -24 0 -8 -12 -18 -26 -23 -14 -6 -22 -14 -19 -20 3 -5 1 -10 -5 -10 -6 0
-8 -5 -4 -11 4 -7 1 -10 -7 -7 -8 3 -22 -7 -31 -21 -10 -14 -18 -22 -18 -17 0
5 -13 -4 -29 -21 -15 -16 -35 -33 -45 -36 -9 -4 -16 -13 -16 -21 0 -7 -11 -17
-25 -20 -14 -4 -24 -12 -22 -19 1 -6 -4 -11 -10 -10 -7 2 -13 -6 -13 -18 0
-11 -4 -17 -10 -14 -5 3 -10 1 -10 -4 0 -6 -7 -11 -16 -11 -8 0 -12 -4 -9 -10
3 -5 1 -10 -5 -10 -15 0 -41 -26 -33 -34 4 -3 -1 -6 -10 -6 -10 0 -17 -4 -17
-10 0 -5 -6 -10 -12 -10 -7 0 -21 -14 -31 -31 -10 -18 -20 -29 -23 -26 -4 3
-28 -16 -55 -43 -27 -27 -49 -46 -49 -42 0 4 -9 -6 -19 -21 -10 -16 -21 -28
-25 -28 -17 3 -26 0 -25 -6 1 -5 1 -17 0 -28 -1 -15 -3 -17 -10 -7 -7 11 -9
11 -14 -2 -4 -9 -13 -16 -21 -16 -7 0 -16 -9 -19 -21 -3 -12 -9 -19 -14 -16
-10 6 -34 -19 -26 -27 6 -6 -13 -10 -30 -7 -5 1 -6 -2 -3 -7 2 -4 -6 -16 -19
-26 -14 -10 -22 -22 -19 -27 3 -5 -2 -9 -10 -9 -8 0 -22 -10 -30 -22 -9 -12
-16 -18 -16 -13 0 5 -6 0 -14 -10 -7 -10 -19 -16 -27 -13 -12 5 -14 102 -13
619 1 338 2 617 3 622 0 4 8 7 16 7 8 0 12 6 10 13 -3 7 4 13 17 13 38 3 82
15 88 24 3 5 16 11 28 13 12 2 24 6 28 9 3 4 12 4 19 2 7 -3 16 3 19 13 4 12
16 19 34 20 61 2 87 10 84 27 -2 11 2 14 13 10 8 -3 15 -1 15 5 0 6 5 11 11
11 5 0 7 -6 4 -12 -3 -7 0 -5 7 5 16 22 78 24 78 2z m-597 -240 c-7 -21 -12
-19 -10 4 0 11 5 18 9 15 4 -3 5 -11 1 -19z m2 -34 c3 -5 2 -12 -3 -15 -5 -3
-9 1 -9 9 0 17 3 19 12 6z m0 -70 c3 -5 2 -12 -3 -15 -5 -3 -9 1 -9 9 0 17 3
19 12 6z m-1080 -61 c-3 -5 -14 -10 -23 -9 -14 0 -13 2 3 9 27 11 27 11 20 0z
m1078 -75 c-7 -21 -12 -19 -10 4 0 11 5 18 9 15 4 -3 5 -11 1 -19z m2 -34 c3
-5 2 -12 -3 -15 -5 -3 -9 1 -9 9 0 17 3 19 12 6z m0 -70 c3 -5 2 -12 -3 -15
-5 -3 -9 1 -9 9 0 17 3 19 12 6z m-2 -136 c-7 -21 -12 -19 -10 4 0 11 5 18 9
15 4 -3 5 -11 1 -19z m2 -34 c3 -5 2 -12 -3 -15 -5 -3 -9 1 -9 9 0 17 3 19 12
6z m0 -70 c3 -5 2 -12 -3 -15 -5 -3 -9 1 -9 9 0 17 3 19 12 6z m-2 -136 c-7
-21 -12 -19 -10 4 0 11 5 18 9 15 4 -3 5 -11 1 -19z m2 -34 c3 -5 2 -12 -3
-15 -5 -3 -9 1 -9 9 0 17 3 19 12 6z m0 -70 c3 -5 2 -12 -3 -15 -5 -3 -9 1 -9
9 0 17 3 19 12 6z m-2 -136 c-7 -21 -12 -19 -10 4 0 11 5 18 9 15 4 -3 5 -11
1 -19z m2 -34 c3 -5 2 -12 -3 -15 -5 -3 -9 1 -9 9 0 17 3 19 12 6z m-2 -86
c-7 -21 -12 -19 -10 4 0 11 5 18 9 15 4 -3 5 -11 1 -19z m397 -45 c0 -5 -5
-10 -11 -10 -5 0 -7 5 -4 10 3 6 8 10 11 10 2 0 4 -4 4 -10z m-253 -56 c-3 -3
-12 -4 -19 -1 -8 3 -5 6 6 6 11 1 17 -2 13 -5z"/>
<path d="M3420 4360 c0 -5 5 -10 11 -10 5 0 7 5 4 10 -3 6 -8 10 -11 10 -2 0
-4 -4 -4 -10z"/>
<path d="M2516 1942 c-3 -5 1 -9 9 -9 8 0 12 4 9 9 -3 4 -7 8 -9 8 -2 0 -6 -4
-9 -8z"/>
</g>
</svg>
